<svg xmlns="http://www.w3.org/2000/svg" viewBox="0 0 640 360" width="640" height="360" role="img" aria-label="Naveen language chart">
  <defs>
    <linearGradient id="langBar" x1="0" y1="0" x2="1" y2="0">
      <stop offset="0%" stop-color="#0ea5e9" />
      <stop offset="100%" stop-color="#60a5fa" />
    </linearGradient>
  </defs>
  <rect width="640" height="360" rx="24" fill="#061124" />
  <text x="40" y="46" font-family="Inter, sans-serif" font-size="26" fill="#dbeafe">Languages & Tools</text>
  <g font-family="JetBrains Mono, monospace" font-size="16" fill="#cbd5e1">
    <text x="40" y="96">Java</text>
    <text x="40" y="146">Spring Boot</text>
    <text x="40" y="196">React</text>
    <text x="40" y="246">JavaScript</text>
    <text x="340" y="96">SQL</text>
    <text x="340" y="146">AWS</text>
  </g>
  <rect x="38" y="106" width="250" height="18" rx="9" fill="#0b3250" />
  <rect x="38" y="106" width="238" height="18" rx="9" fill="url(#langBar)"><animate attributeName="width" values="0;238" dur="1.1s" fill="freeze" /></rect>
  <text x="296" y="120" font-family="Inter, sans-serif" font-size="13" fill="#dbeafe">95%</text>
  <rect x="38" y="156" width="250" height="18" rx="9" fill="#0b3250" />
  <rect x="38" y="156" width="230" height="18" rx="9" fill="url(#langBar)"><animate attributeName="width" values="0;230" dur="1.1s" begin="0.2s" fill="freeze" /></rect>
  <text x="296" y="170" font-family="Inter, sans-serif" font-size="13" fill="#dbeafe">92%</text>
  <rect x="38" y="206" width="250" height="18" rx="9" fill="#0b3250" />
  <rect x="38" y="206" width="222" height="18" rx="9" fill="url(#langBar)"><animate attributeName="width" values="0;222" dur="1.1s" begin="0.4s" fill="freeze" /></rect>
  <text x="296" y="220" font-family="Inter, sans-serif" font-size="13" fill="#dbeafe">88%</text>
  <rect x="38" y="256" width="250" height="18" rx="9" fill="#0b3250" />
  <rect x="38" y="256" width="216" height="18" rx="9" fill="url(#langBar)"><animate attributeName="width" values="0;216" dur="1.1s" begin="0.6s" fill="freeze" /></rect>
  <text x="296" y="270" font-family="Inter, sans-serif" font-size="13" fill="#dbeafe">86%</text>
  <rect x="338" y="106" width="250" height="18" rx="9" fill="#0b3250" />
  <rect x="338" y="106" width="208" height="18" rx="9" fill="url(#langBar)"><animate attributeName="width" values="0;208" dur="1.1s" begin="0.3s" fill="freeze" /></rect>
  <text x="596" y="120" font-family="Inter, sans-serif" font-size="13" fill="#dbeafe">80%</text>
  <rect x="338" y="156" width="250" height="18" rx="9" fill="#0b3250" />
  <rect x="338" y="156" width="168" height="18" rx="9" fill="url(#langBar)"><animate attributeName="width" values="0;168" dur="1.1s" begin="0.5s" fill="freeze" /></rect>
  <text x="596" y="170" font-family="Inter, sans-serif" font-size="13" fill="#dbeafe">72%</text>
</svg>